<?xml version="1.0" encoding="utf-8"?>
<!-- Generator: Adobe Illustrator 19.1.0, SVG Export Plug-In . SVG Version: 6.00 Build 0)  -->
<svg version="1.1" id="Layer_1" xmlns="http://www.w3.org/2000/svg" xmlns:xlink="http://www.w3.org/1999/xlink" x="0px" y="0px"
	 width="120px" height="71.9px" viewBox="0 22.9 120 71.9" enable-background="new 0 22.9 120 71.9" xml:space="preserve">
<g>
	<g>
		<path fill="#F4E7FC" d="M26.3,22.9c7,0,13.9,0.1,20.9,0c2.7,0,4.7,0.8,5.3,3.7c0,0.1,0,0.2,0.1,0.4c0.3,0.5,0.6,1.4,0.8,1.3
			c5.1-1.2,4.6,6.5,9.7,5.8c3.7-0.6,7.5-0.1,11.3-0.1c3.2,0.1,4.8,1.7,4.8,4.6c0,2.9-1.6,4.5-4.7,4.6c-1.8,0.1-3.7,0-5.5,0.1
			c-2.3,0-3,1.1-2.4,3.3c1.7,5.9,0.4,7.7-5.8,7.7c-12,0-23.9,0-35.9,0c-4.5,0-5.5-1.1-5.8-5.6c-0.2-2.7-0.6-5.3-4.4-5.6
			c-2.8-0.3-3.9-3.2-2.8-6.5c1.3-4,1.1-4.1-3.1-4.2c-1.5,0-2.9,0.1-4.4-0.1c-2.9-0.4-4.4-2-4.4-4.9c0.1-2.9,1.5-4.5,4.5-4.5
			C11.7,22.8,19,22.9,26.3,22.9L26.3,22.9z"/>
		<path fill="#FCE7ED" d="M65.4,94.8c-7.9,0-15.7,0-23.7,0c-5.9,0-7.9-2.9-5.7-8.3c0.9-2.4,0.3-3.5-2.3-3.5c-2.2,0-4.4,0-6.5,0
			c-4.6-0.1-7-1.9-7-5.3c0.1-3.2,2.4-5.1,6.7-5.1c5.1-0.1,10-0.1,15.1,0c1.8,0,3.2-0.1,3.8-2.4c1-3.3,4.5-2.5,6.6-3.8
			c2-1.3,1.8-5.2,5.2-5.5c1.1-0.1,2-0.1,3.1-0.1c17.3,0,34.7,0,52.1,0c0.8,0,1.6,0,2.4,0.1c3,0.4,4.9,2.5,4.8,5.3
			c-0.1,2.9-1.8,4.7-4.7,4.9c-2.8,0.2-5.7,0.1-8.6,0.1c-2.7,0-3.2,1.2-2.1,3.5c2.2,5.1,0.7,7.8-4.8,8.5c-3.4,0.4-3.6,3.1-3.7,5.5
			c-0.3,4.8-1.6,6.3-6.5,6.4C81.6,94.8,73.4,94.8,65.4,94.8z"/>
	</g>
	<g>
		<path fill="#2D527C" d="M68.1,59.9c-0.4,0-0.6-0.2-0.6-0.6v-4.6c0-0.4,0.2-0.6,0.6-0.6h1.8v-3.5H52.4v2.9c0,0.4-0.2,0.6-0.6,0.6
			H35.7c-0.4,0-0.6-0.2-0.6-0.6v-2.9H31c-0.4,0-0.6-0.2-0.6-0.6v-4.6c0-0.4,0.2-0.6,0.6-0.6h4.1V42c0-0.4,0.2-0.6,0.6-0.6h16.2
			c0.4,0,0.6,0.2,0.6,0.6v2.9h17.4v-3.5h-1.8c-0.4,0-0.6-0.2-0.6-0.6v-4.6c0-0.4,0.2-0.6,0.6-0.6H89c0.4,0,0.6,0.2,0.6,0.6v4.6
			c0,0.4-0.2,0.6-0.6,0.6h-1.8v12.8H89c0.4,0,0.6,0.2,0.6,0.6v4.6c0,0.4-0.2,0.6-0.6,0.6L68.1,59.9L68.1,59.9z"/>
		<rect x="68.7" y="55.3" fill="#9EE2FF" width="19.7" height="3.5"/>
		<rect x="71" y="41.4" fill="#74EEE7" width="15.1" height="12.8"/>
		<rect x="36.2" y="42.5" fill="#9EE2FF" width="15.1" height="10.5"/>
		<rect x="52.4" y="46" fill="#74EEE7" width="17.4" height="3.5"/>
		<rect x="31.6" y="46" fill="#74EEE7" width="3.5" height="3.5"/>
		<rect x="68.7" y="36.7" fill="#9EE2FF" width="19.7" height="3.5"/>
		<path fill="#2D527C" d="M85.5,63.2c-0.3,0-0.6,0.2-0.6,0.6v0.1v3.4v12.4H72.7c-0.4,0-0.6,0.2-0.6,0.6v12.2h-37v-14l0,0v-2.4
			c0-0.3-0.3-0.6-0.6-0.6s-0.6,0.3-0.6,0.6v1v1.5V93c0,0.4,0.2,0.6,0.6,0.6h38.2c0.2,0,0.3,0,0.4-0.2l12.7-12.8c0,0,0-0.1,0.1-0.1
			c0-0.1,0.1-0.2,0.1-0.3v-13v-3.4v-0.1C86,63.5,85.8,63.2,85.5,63.2z"/>
		<polygon fill="#9EE2FF" points="73.3,91.6 84.2,80.8 73.3,80.8 		"/>
		<rect x="39.7" y="61.1" fill="#2D527C" width="11.5" height="1.1"/>
		<rect x="39.7" y="66.9" fill="#2D527C" width="11.5" height="1.1"/>
		<rect x="56" y="61.1" fill="#2D527C" width="2.3" height="1.1"/>
		<rect x="56" y="66.9" fill="#2D527C" width="2.3" height="1.1"/>
		<rect x="61.8" y="66.9" fill="#2D527C" width="11.5" height="1.1"/>
		<rect x="78" y="66.9" fill="#2D527C" width="2.3" height="1.1"/>
		<rect x="39.7" y="72.7" fill="#2D527C" width="11.5" height="1.1"/>
		<rect x="56" y="72.7" fill="#2D527C" width="2.3" height="1.1"/>
		<rect x="39.7" y="78.5" fill="#2D527C" width="11.5" height="1.1"/>
		<rect x="56" y="78.5" fill="#2D527C" width="2.3" height="1.1"/>
		<rect x="39.7" y="84.3" fill="#2D527C" width="11.5" height="1.1"/>
		<rect x="56" y="84.3" fill="#2D527C" width="2.3" height="1.1"/>
		<rect x="61.8" y="72.7" fill="#2D527C" width="11.5" height="1.1"/>
		<rect x="61.8" y="78.5" fill="#2D527C" width="5.7" height="1.1"/>
		<rect x="61.8" y="84.3" fill="#2D527C" width="5.7" height="1.1"/>
		<rect x="78" y="72.7" fill="#2D527C" width="2.3" height="1.1"/>
		<rect x="39.7" y="31" fill="#2D527C" width="1.1" height="1.1"/>
		<rect x="44.4" y="31" fill="#2D527C" width="1.1" height="1.1"/>
		<rect x="49" y="31" fill="#2D527C" width="1.1" height="1.1"/>
		<rect x="53.6" y="31" fill="#2D527C" width="1.1" height="1.1"/>
		<rect x="58.3" y="31" fill="#2D527C" width="1.1" height="1.1"/>
		<g>
			
				<line fill="none" stroke="#FFFFFF" stroke-width="1.3554" stroke-linejoin="round" stroke-miterlimit="10" x1="41.9" y1="42.5" x2="41.9" y2="48.6"/>
			
				<line fill="none" stroke="#FFFFFF" stroke-width="1.3554" stroke-linejoin="round" stroke-miterlimit="10" x1="45.7" y1="42.5" x2="45.7" y2="48.6"/>
		</g>
		<path fill="#2D527C" d="M33.9,57.5V71c0,0.3,0.3,0.6,0.6,0.6l0,0c0.3,0,0.6-0.3,0.6-0.6V57.5c0-0.3-0.3-0.6-0.6-0.6l0,0
			C34.2,56.9,33.9,57.2,33.9,57.5z"/>
		<path fill="#2D527C" d="M84.5,25.2H35.4c-0.8,0-1.5,0.7-1.5,1.5v9.7c0,0.3,0.2,0.5,0.5,0.5h0.1c0.3,0,0.5-0.2,0.5-0.5v-9.1
			c0-0.5,0.4-0.9,0.9-0.9h48c0.5,0,0.9,0.4,0.9,0.9v1.4v3.4v0.1c0,0.3,0.2,0.5,0.5,0.5l0,0c0.3,0,0.5-0.2,0.5-0.5v-0.1v-3.4v-2
			C86,25.9,85.4,25.2,84.5,25.2z"/>
		<rect x="36.2" y="49.5" fill="#74EEE7" width="15.1" height="3.5"/>
	</g>
</g>
</svg>
