<?xml version="1.0" encoding="utf-8"?>
<!-- Generator: Adobe Illustrator 19.1.0, SVG Export Plug-In . SVG Version: 6.00 Build 0)  -->
<svg version="1.1" id="Layer_1" xmlns="http://www.w3.org/2000/svg" xmlns:xlink="http://www.w3.org/1999/xlink" x="0px" y="0px"
	 width="120px" height="76.5px" viewBox="0 22.5 120 76.5" enable-background="new 0 22.5 120 76.5" xml:space="preserve">
<g>
	<g>
		<path fill="#FCE7ED" d="M40.1,22.5c10.6,0,21.1,0,31.7,0c5.3,0,6.5,1,8.4,5.9c0.4,0.9,1.7,1.8,2.6,2c3.4,0.3,5.6,1.8,6.9,5.1
			c0.4,1.1,2.4,2.1,3.6,2.1c6.2,0.2,12.5,0.1,18.7,0.2c5.2,0.1,8,2.4,8,6.7c0,4.2-2.8,6.5-8,6.6c-2.7,0-5.3-0.1-8,0
			c-3.2,0.1-4,1.4-2.9,4.4c2.8,7,0.3,10.8-7.2,10.8c-18.8,0-37.7,0-56.5,0c-6.2,0-8.1-2.1-8.1-8.3c0.1-3.9-2.1-6.4-5.9-7
			c-4.8-0.8-7-5.2-4.9-9.8c2.1-4.7,1.7-5.3-3.3-5.3c-2.1,0-4.3,0-6.5,0c-5.5-0.1-8.3-2.4-8.2-6.8c0.1-4.3,2.9-6.5,8.4-6.5
			C19.3,22.5,29.7,22.5,40.1,22.5z"/>
		<path fill="#F4E7FC" d="M56.4,65.8c-7.4,0-14.8,0.1-22.2,0c-2.9,0-5,0.8-5.7,3.9c0,0.2,0,0.2-0.1,0.4c-0.3,0.5-0.7,1.4-0.9,1.4
			c-5.4-1.3-4.9,7-10.3,6.2c-3.9-0.6-8-0.2-12-0.1c-3.3,0.1-5.1,1.8-5.2,4.8c0,3,1.8,4.8,5,4.9c1.9,0.1,3.9,0,5.9,0
			c2.4,0,3.2,1.1,2.5,3.5C11.6,97.1,13,99,19.6,99c12.8,0,25.5,0,38.3,0c4.8,0,5.8-1.1,6.2-6c0.2-3,0.7-5.6,4.7-6c3-0.2,4.1-3.4,3-7
			c-1.4-4.3-1.2-4.4,3.3-4.5c1.6,0,3.2,0.1,4.7-0.1c3-0.2,4.6-1.9,4.6-4.9c-0.1-3-1.7-4.8-4.7-4.8C72,65.8,64.2,65.8,56.4,65.8
			L56.4,65.8z"/>
	</g>
	<g>
		<g>
			<path fill="none" stroke="#2D527C" stroke-width="1.3261" stroke-linecap="round" stroke-miterlimit="10" d="M46.9,34.5
				c0,0,5.3-8,15-8.5"/>
			
				<path fill="none" stroke="#2D527C" stroke-width="1.3261" stroke-linecap="round" stroke-linejoin="bevel" stroke-miterlimit="10" d="
				M66.4,25.9c-1.5,0.2,5-0.3,9.4,2.9"/>
			<path fill="none" stroke="#2D527C" stroke-width="1.3261" stroke-linecap="round" stroke-miterlimit="10" d="M79.4,46.7
				c0,0,17.8-2,19.4,14.9c0,16.9-21.9,13.8-21.9,13.8"/>
			<path fill="none" stroke="#2D527C" stroke-width="1.3261" stroke-linecap="round" stroke-miterlimit="10" d="M78.5,30.8
				c0,0,8.6,4.9,7.5,16.3"/>
			
				<path fill="none" stroke="#2D527C" stroke-width="1.3261" stroke-linecap="round" stroke-linejoin="round" stroke-miterlimit="10" d="
				M43.3,75.4c0,0-9.3,0.8-14.3-3.2c-5.3-4.4-13.8-15.6,2.4-26.9c0,0-1.7-8.9,7.5-11.4c9-2.5,13.9,6.6,13.2,9.9"/>
		</g>
		<g>
			<path fill="#9EE2FF" d="M60.1,55.1l-13.7,5.8C48.6,76.5,60,87.3,60,87.3"/>
			<path fill="#74EEE7" d="M60.1,87.7c1.7-1.3,12.8-11.3,14.8-26.8c0,0-12.8-4.5-14.7-5.8"/>
			
				<path fill="none" stroke="#2D527C" stroke-width="1.3261" stroke-linecap="round" stroke-linejoin="round" stroke-miterlimit="10" d="
				M72.4,66.8c0.2-0.8,0.7-2.9,0.9-3.7"/>
			
				<path fill="none" stroke="#2D527C" stroke-width="1.3261" stroke-linecap="round" stroke-linejoin="round" stroke-miterlimit="10" d="
				M71.4,60c-0.5-0.2-1.1-0.4-1.7-0.7s-1.3-0.5-2-0.8c-3.2-1.3-6.7-2.8-7.6-3.4l-13.7,5.8C48.6,76.5,60,87.3,60,87.3
				c1.6-1.3,3-3,4.3-5c1.9-2.5,4.1-5.9,5.9-9.9c0.4-0.9,0.8-1.9,1.2-2.9"/>
			
				<path fill="none" stroke="#2D527C" stroke-width="1.3261" stroke-linecap="round" stroke-linejoin="round" stroke-miterlimit="10" d="
				M51.6,83.8c4.4,6.6,8.5,10.4,8.5,10.4c2.2-1.8,4.3-4.3,6.2-7.1c4.9-6.5,11.3-17.1,13.2-30.3c0-0.2-0.1-0.4-0.3-0.5
				c-2.4-0.9-16.7-6.5-19.1-8.1l-19.5,8.2c0.4,3.1,1.1,6.1,2,8.9"/>
			
				<path fill="none" stroke="#2D527C" stroke-width="1.3261" stroke-linecap="round" stroke-linejoin="round" stroke-miterlimit="10" d="
				M44.3,70.1c1.4,3.4,3,6.6,4.6,9.4"/>
			
				<line fill="none" stroke="#2D527C" stroke-width="1.3261" stroke-linecap="round" stroke-linejoin="round" stroke-miterlimit="10" x1="60.1" y1="81" x2="60.1" y2="87.3"/>
			
				<line fill="none" stroke="#2D527C" stroke-width="1.3261" stroke-linecap="round" stroke-linejoin="round" stroke-miterlimit="10" x1="60.1" y1="76.4" x2="60.1" y2="78.7"/>
			
				<line fill="none" stroke="#2D527C" stroke-width="1.3261" stroke-linecap="round" stroke-linejoin="round" stroke-miterlimit="10" x1="60.1" y1="55.1" x2="60.1" y2="73.8"/>
			<path fill="none" stroke="#FFFFFF" stroke-width="1.3261" stroke-linecap="round" stroke-miterlimit="10" d="M51.6,69.4
				c0.4,1,0.7,2,1.1,2.9"/>
			<path fill="none" stroke="#FFFFFF" stroke-width="1.3261" stroke-linecap="round" stroke-miterlimit="10" d="M57.5,59.1L50,62.3
				c0.2,1.7,0.6,3.3,1,4.8"/>
		</g>
	</g>
</g>
</svg>
